<?xml version="1.0" encoding="utf-8"?>
<!-- Generator: Adobe Illustrator 22.1.0, SVG Export Plug-In . SVG Version: 6.00 Build 0)  -->
<svg version="1.1" id="Livello_1" xmlns="http://www.w3.org/2000/svg" xmlns:xlink="http://www.w3.org/1999/xlink" x="0px" y="0px"
	 viewBox="0 0 141.7 141.7" style="enable-background:new 0 0 141.7 141.7;" xml:space="preserve">
<style type="text/css">
	.st0{fill:#E9006A;stroke:#000000;stroke-width:2;stroke-miterlimit:10;}
</style>
<g id="Livello_110">
	<path class="st0" d="M95.3,51.6C95.3,65.6,84,77,69.9,77c-14.1,0-25.4-11.3-25.4-25.3c0-14,11.4-25.3,25.4-25.3
		C84,26.3,95.3,37.7,95.3,51.6 M121.7,51.6C121.7,23.7,99,1,70.9,1C42.8,1,20,23.7,20,51.6c0,12.3,4.4,23.6,11.7,32.3l39.2,56.3
		l39.8-57.1c1.4-1.8,2.7-3.7,3.9-5.6L115,77h-0.1C119.3,69.5,121.7,60.9,121.7,51.6"/>
</g>
<g id="Livello_1_1_">
</g>
</svg>
