<?xml version="1.0" encoding="utf-8"?>
<!-- Generator: Adobe Illustrator 22.1.0, SVG Export Plug-In . SVG Version: 6.00 Build 0)  -->
<svg version="1.1" id="Layer_1" xmlns:sketch="http://www.bohemiancoding.com/sketch/ns"
	 xmlns="http://www.w3.org/2000/svg" xmlns:xlink="http://www.w3.org/1999/xlink" x="0px" y="0px" viewBox="0 0 20 20"
	 style="enable-background:new 0 0 20 20;" xml:space="preserve">
<style type="text/css">
	.st0{stroke:#0022BF;stroke-width:3;stroke-miterlimit:10;}
	.st1{stroke:#14006A;stroke-width:3;stroke-miterlimit:10;}
</style>
<title></title>
<desc></desc>
<g id="Page-1">
	<g id="Core" transform="translate(-170.000000, -86.000000)">
		<g id="check-circle-outline-blank" transform="translate(170.000000, 86.000000)">
			<path id="Shape" class="st0" d="M10,2c-4.4,0-8,3.6-8,8s3.6,8,8,8s8-3.6,8-8S14.4,2,10,2L10,2z M10,16.4c-3.5,0-6.4-2.9-6.4-6.4
				S6.5,3.6,10,3.6s6.4,2.9,6.4,6.4S13.5,16.4,10,16.4L10,16.4z"/>
		</g>
	</g>
</g>
<g id="Page-1_1_">
	<g id="Core_1_" transform="translate(-170.000000, -86.000000)">
		<g id="check-circle-outline-blank_1_" transform="translate(170.000000, 86.000000)">
			<path id="Shape_1_" class="st1" d="M10,7.2c-1.6,0-2.8,1.3-2.8,2.8s1.3,2.8,2.8,2.8s2.8-1.3,2.8-2.8S11.6,7.2,10,7.2L10,7.2z
				 M10,12.3c-1.2,0-2.3-1-2.3-2.3s1-2.3,2.3-2.3s2.3,1,2.3,2.3S11.2,12.3,10,12.3L10,12.3z"/>
		</g>
	</g>
</g>
</svg>
